<svg width="68" height="68" viewBox="0 0 68 68" fill="none" xmlns="http://www.w3.org/2000/svg">
<path fill-rule="evenodd" clip-rule="evenodd" d="M34 68C52.7777 68 68 52.7777 68 34C68 15.2223 52.7777 0 34 0C15.2223 0 0 15.2223 0 34C0 52.7777 15.2223 68 34 68ZM30.2894 30.2877C31.274 29.3031 32.6094 28.75 34.0018 28.75C35.3941 28.75 36.7295 29.3031 37.7141 30.2877C38.6986 31.2723 39.2518 32.6076 39.2518 34C39.2518 35.3924 38.6986 36.7277 37.7141 37.7123C36.7295 38.6969 35.3941 39.25 34.0018 39.25C32.6094 39.25 31.274 38.6969 30.2894 37.7123C29.3049 36.7277 28.7518 35.3924 28.7518 34C28.7518 32.6076 29.3049 31.2723 30.2894 30.2877ZM40.1889 27.8128C38.548 26.1719 36.3224 25.25 34.0018 25.25C31.6811 25.25 29.4555 26.1719 27.8146 27.8128C26.1736 29.4538 25.2517 31.6794 25.2517 34C25.2517 36.3206 26.1736 38.5462 27.8146 40.1872C29.4555 41.8281 31.6811 42.75 34.0018 42.75C36.3224 42.75 38.548 41.8281 40.1889 40.1872C41.8299 38.5462 42.7518 36.3206 42.7518 34C42.7518 31.6794 41.8299 29.4538 40.1889 27.8128ZM44.736 26.3593C45.1463 25.9491 45.3768 25.3927 45.3768 24.8125C45.3768 24.2323 45.1463 23.6759 44.736 23.2657C44.3258 22.8555 43.7694 22.625 43.1893 22.625C42.6091 22.625 42.0527 22.8555 41.6425 23.2657C41.2322 23.6759 41.0018 24.2323 41.0018 24.8125C41.0018 25.3927 41.2322 25.9491 41.6425 26.3593C42.0527 26.7695 42.6091 27 43.1893 27C43.7694 27 44.3258 26.7695 44.736 26.3593ZM26.951 20.1015C28.9653 20.0123 29.6722 20 34.0018 20C38.4468 20 39.1205 20.0105 41.0508 20.1015C42.4193 20.1645 43.3398 20.3482 44.1973 20.6807C44.9121 20.9435 45.5583 21.3647 46.0872 21.9128C46.6333 22.443 47.0537 23.0888 47.3175 23.8027C47.6483 24.6567 47.8338 25.5808 47.8985 26.9493C47.9878 28.9635 48 29.6705 48 34C48 38.4415 47.9895 39.1188 47.8985 41.049C47.8355 42.4175 47.65 43.338 47.3175 44.199C47.027 44.9533 46.6753 45.501 46.0855 46.089C45.5554 46.6352 44.9095 47.0556 44.1955 47.3193C43.3398 47.65 42.4193 47.8338 41.0508 47.8985C39.0365 47.9878 38.3312 48 34 48C29.5568 48 28.8813 47.9895 26.9492 47.8985C25.5842 47.8355 24.6637 47.65 23.7992 47.3158C23.0467 47.0252 22.499 46.6735 21.9093 46.0855C21.3283 45.5045 20.9783 44.9568 20.6807 44.1955C20.35 43.3433 20.1663 42.421 20.1015 41.0508C20.0122 39.0365 20 38.3312 20 34C20 29.5568 20.0122 28.8813 20.1033 26.9493C20.1663 25.579 20.35 24.6602 20.6825 23.8027C20.9456 23.088 21.3668 22.4419 21.9145 21.9128C22.4437 21.3655 23.0898 20.9449 23.8045 20.6825C24.6585 20.35 25.579 20.1663 26.951 20.1015ZM41.217 16.605C39.3498 16.5175 38.7565 16.5 34.0018 16.5C29.247 16.5 28.6537 16.5228 26.7865 16.605C24.9227 16.6925 23.654 16.9848 22.5392 17.4188C21.371 17.8575 20.3127 18.5462 19.4382 19.4365C18.5472 20.3103 17.8584 21.3688 17.4205 22.5375C16.9865 23.654 16.6943 24.921 16.6068 26.7865C16.5193 28.652 16.5017 29.2453 16.5017 34C16.5017 38.7547 16.5228 39.348 16.6068 41.2135C16.6943 43.0773 16.9865 44.3477 17.4205 45.4625C17.8597 46.6305 18.5483 47.6888 19.4382 48.5635C20.3124 49.4542 21.3708 50.1428 22.5392 50.5812C23.6558 51.0135 24.9245 51.3075 26.7865 51.395C28.6537 51.4825 29.247 51.5 34.0018 51.5C38.7565 51.5 39.3498 51.4772 41.217 51.395C43.079 51.3075 44.3495 51.0135 45.4643 50.5812C46.632 50.1416 47.6902 49.4531 48.5653 48.5635C49.4562 47.6895 50.1449 46.6311 50.583 45.4625C51.0153 44.346 51.3093 43.0773 51.3968 41.2135C51.4843 39.348 51.5018 38.7547 51.5018 34C51.5018 29.2453 51.479 28.652 51.3968 26.7865C51.3093 24.9228 51.0153 23.6523 50.583 22.5375C50.1437 21.3695 49.4551 20.3113 48.5653 19.4365C47.5923 18.4653 46.6193 17.8633 45.4643 17.4188C44.3495 16.9848 43.079 16.6925 41.217 16.605Z" fill="#920606"/>
</svg>
