<svg width="36" height="36" viewBox="0 0 36 36" fill="none" xmlns="http://www.w3.org/2000/svg">
<path d="M34.459 1.37498C34.1286 1.16052 33.7591 1.01326 33.3717 0.941613C32.9844 0.86997 32.5867 0.875348 32.2014 0.95744C31.8161 1.03953 31.4507 1.19673 31.1262 1.42005C30.8017 1.64337 30.5243 1.92845 30.31 2.25898L13.5 28.17L5.302 20.59C5.01277 20.3225 4.67369 20.1147 4.30412 19.9783C3.93456 19.8419 3.54175 19.7796 3.14812 19.7951C2.35316 19.8262 1.60312 20.1718 1.063 20.756C0.52289 21.3401 0.236946 22.1149 0.268077 22.9099C0.299209 23.7048 0.644864 24.4549 1.229 24.995L11.993 34.947C11.993 34.947 12.302 35.213 12.445 35.306C12.7755 35.5206 13.145 35.668 13.5325 35.7397C13.92 35.8115 14.3178 35.8061 14.7032 35.724C15.0886 35.6419 15.4541 35.4847 15.7787 35.2613C16.1033 35.0378 16.3807 34.7527 16.595 34.422L35.343 5.52398C35.5575 5.19354 35.7047 4.82408 35.7764 4.4367C35.848 4.04933 35.8426 3.65164 35.7605 3.26635C35.6785 2.88105 35.5213 2.51571 35.2979 2.19118C35.0746 1.86666 34.7895 1.58931 34.459 1.37498Z" fill="#920606"/>
</svg>
