<svg width="68" height="68" viewBox="0 0 68 68" fill="none" xmlns="http://www.w3.org/2000/svg">
<path d="M34 0C15.2235 0 0 15.2235 0 34C0 52.7765 15.2235 68 34 68C52.7765 68 68 52.7765 68 34C68 15.2235 52.7765 0 34 0ZM50.6997 23.2928L45.118 49.5862C44.7072 51.4505 43.5965 51.9038 42.0467 51.0255L33.5467 44.7638L29.4497 48.7135C29.2489 48.9734 28.9913 49.1838 28.6967 49.3287C28.402 49.4736 28.078 49.5491 27.7497 49.5493H27.7355L28.339 40.8963L44.0923 26.6673C44.7723 26.0638 43.9393 25.721 43.0355 26.3245L23.5733 38.5815L15.1867 35.9635C13.3733 35.3883 13.3223 34.1502 15.5692 33.2605L48.3395 20.6295C49.8638 20.0742 51.1898 20.9922 50.6968 23.2957L50.6997 23.2928Z" fill="#920606"/>
</svg>
