<svg width="68" height="68" viewBox="0 0 68 68" fill="none" xmlns="http://www.w3.org/2000/svg">
<path fill-rule="evenodd" clip-rule="evenodd" d="M33.9108 67.8215C52.6392 67.8215 67.8215 52.6392 67.8215 33.9108C67.8215 15.1824 52.6392 0 33.9108 0C15.1824 0 0 15.1824 0 33.9108C0 52.6392 15.1824 67.8215 33.9108 67.8215ZM41.3905 15.7819C43.7085 16.7104 45.8117 18.0748 47.5775 19.7957C51.1791 23.2707 53.1628 27.8979 53.1628 32.8223C53.1628 42.9686 44.5922 51.238 34.0762 51.238C30.8791 51.238 27.7397 50.4575 24.947 48.9894L14.8356 51.5539L17.532 42.0023C15.8756 39.2148 14.9897 36.0558 14.9897 32.8037C14.9897 22.6575 23.5603 14.3881 34.0762 14.3881C36.586 14.3797 39.0725 14.8535 41.3905 15.7819ZM25.9871 45.979C28.4331 47.3727 31.2258 48.116 34.0762 48.116C42.8203 48.116 49.9464 41.259 49.9079 32.8223C49.9157 30.81 49.5094 28.8162 48.7126 26.9565C47.9159 25.0968 46.7444 23.4082 45.2663 21.9885C42.281 19.0896 38.2942 17.4915 34.057 17.4915C25.313 17.4915 18.1868 24.3671 18.1868 32.8037C18.189 35.6827 19.0299 38.5031 20.6136 40.943L20.9988 41.5191L19.4002 47.1683L25.4093 45.6445L25.9871 45.979ZM42.1474 36.3716C42.4337 36.5062 42.6638 36.6144 42.7817 36.669C42.877 36.7131 42.9647 36.7521 43.0452 36.7879C43.3715 36.9331 43.5788 37.0253 43.687 37.1893C43.8218 37.3937 43.8218 38.3043 43.4173 39.3821C43.0321 40.4599 41.1254 41.4448 40.2009 41.5749C39.3727 41.6864 38.3327 41.7421 37.1964 41.389C36.503 41.1846 35.617 40.9059 34.4807 40.4227C29.9142 38.5218 26.844 34.1919 26.381 33.5389C26.3597 33.5089 26.3439 33.4866 26.3338 33.4727L26.33 33.4679C26.0848 33.1525 24.3885 30.9708 24.3885 28.7155C24.3885 26.6238 25.4378 25.5129 25.9329 24.9886C25.9744 24.9447 26.0121 24.9048 26.0449 24.8689C26.4878 24.4043 26.9886 24.2928 27.316 24.2928H28.2405C28.2739 24.295 28.3089 24.2954 28.3453 24.2958C28.6228 24.299 28.9784 24.3032 29.319 25.0919C29.7042 26.021 30.6672 28.2881 30.7828 28.5111C30.8984 28.7341 30.9754 28.9943 30.8213 29.3102C30.8082 29.3355 30.7955 29.3602 30.783 29.3843C30.6498 29.6428 30.5512 29.8341 30.3398 30.0721C30.266 30.1551 30.1883 30.2458 30.1098 30.3373C29.9424 30.5326 29.7714 30.732 29.6272 30.8711C29.3768 31.1127 29.1457 31.3543 29.4153 31.8189C29.7042 32.2834 30.648 33.7886 32.0732 35.0151C33.6212 36.3498 34.9721 36.9101 35.6322 37.1839C35.7441 37.2303 35.8361 37.2685 35.9059 37.3008C36.3874 37.5424 36.6763 37.5052 36.946 37.1893C37.2156 36.892 38.1208 35.8513 38.4483 35.3868C38.7757 34.9408 39.0838 35.0151 39.5268 35.1638C39.8467 35.2901 41.2646 35.9566 42.1474 36.3716Z" fill="#920606"/>
</svg>
