<svg width="68" height="68" viewBox="0 0 68 68" fill="none" xmlns="http://www.w3.org/2000/svg">
<path fill-rule="evenodd" clip-rule="evenodd" d="M34 68C52.7777 68 68 52.7777 68 34C68 15.2223 52.7777 0 34 0C15.2223 0 0 15.2223 0 34C0 52.7777 15.2223 68 34 68ZM53.2457 33.5531C53.25 33.6777 53.25 33.7852 53.25 33.8797V34.1203C53.25 34.1643 53.2491 34.2111 53.2481 34.2611C53.2469 34.3186 53.2457 34.3803 53.2457 34.4469L53.245 34.508C53.2409 34.8404 53.2364 35.2102 53.2242 35.6027C53.1898 36.8016 53.1297 37.9961 53.0352 39.1219C52.9062 40.673 52.7215 41.9664 52.4594 42.9375C51.9094 45 50.2937 46.6199 48.2355 47.1699C47.0238 47.4922 44.6391 47.6941 41.2875 47.823C39.6934 47.8832 37.9875 47.9219 36.2816 47.9434C35.7484 47.951 35.2494 47.9553 34.7938 47.9592L34.6316 47.9605H33.3684L33.2062 47.9592C32.7506 47.9553 32.2516 47.951 31.7184 47.9434C30.0125 47.9219 28.3066 47.8832 26.7125 47.823C23.3609 47.6984 20.9762 47.4965 19.7645 47.1699C17.7063 46.6199 16.0906 44.9957 15.5406 42.9375C15.2828 41.9664 15.0938 40.673 14.9648 39.1219C14.8703 37.9961 14.8102 36.8016 14.7758 35.6027L14.7722 35.4323C14.7649 35.0792 14.758 34.7471 14.7543 34.4469C14.75 34.3223 14.75 34.2148 14.75 34.1203V33.8797C14.75 33.8357 14.7509 33.7889 14.7519 33.7389C14.7531 33.6814 14.7543 33.6197 14.7543 33.5531L14.7551 33.491C14.7591 33.1588 14.7637 32.7894 14.7758 32.3973C14.8102 31.1984 14.8703 30.0039 14.9648 28.8781C15.0938 27.327 15.2785 26.0336 15.5406 25.0625C15.812 24.0487 16.3451 23.1241 17.0864 22.3813C17.8277 21.6385 18.7513 21.1035 19.7645 20.8301C20.9762 20.5078 23.3609 20.3059 26.7125 20.177C28.3066 20.1168 30.0125 20.0781 31.7184 20.0566C32.251 20.049 32.7494 20.0447 33.2045 20.0409L33.3684 20.0395H34.6316L34.7955 20.0409C35.2506 20.0447 35.749 20.049 36.2816 20.0566C37.9875 20.0781 39.6934 20.1168 41.2875 20.177C44.6391 20.3016 47.0195 20.5035 48.2355 20.8301C49.2484 21.1042 50.1716 21.6394 50.9128 22.3821C51.654 23.1248 52.1873 24.0491 52.4594 25.0625C52.7172 26.0336 52.9062 27.327 53.0352 28.8781C53.1297 30.0039 53.1898 31.1984 53.2242 32.3973L53.2276 32.5618C53.235 32.9171 53.242 33.2513 53.2457 33.5531ZM50.1519 34.4082C50.1562 34.2922 50.1562 34.1934 50.1562 34.1031V33.8969C50.1562 33.8571 50.1553 33.8137 50.1543 33.767C50.1532 33.7128 50.1519 33.6541 50.1519 33.5918L50.1512 33.5307C50.1471 33.2152 50.1426 32.8627 50.1305 32.4875C50.0961 31.3445 50.0402 30.2016 49.95 29.1402C49.834 27.7566 49.6707 26.6223 49.4688 25.8617C49.2023 24.8691 48.4203 24.0871 47.432 23.8207C46.534 23.5801 44.2566 23.391 41.1672 23.2707C39.5988 23.2105 37.9187 23.1719 36.2387 23.1504L34.6145 23.1375H33.3855C32.8957 23.1375 32.35 23.1418 31.7613 23.1504C30.0813 23.1719 28.3969 23.2105 26.8328 23.2707C23.7434 23.3867 21.4703 23.5801 20.568 23.8207C19.5797 24.0828 18.7977 24.8691 18.5312 25.8617C18.3293 26.6223 18.166 27.7566 18.05 29.1402C17.9598 30.2016 17.8996 31.3445 17.8695 32.4875C17.8609 32.8871 17.8523 33.2566 17.848 33.5918C17.8438 33.7078 17.8438 33.8066 17.8438 33.8969V34.1031C17.8438 34.1429 17.8447 34.1863 17.8457 34.233C17.8468 34.2872 17.848 34.3459 17.848 34.4082L17.8488 34.4703C17.8529 34.7855 17.8574 35.1377 17.8695 35.5125C17.9039 36.6555 17.9598 37.7984 18.05 38.8598C18.166 40.2434 18.3293 41.3777 18.5312 42.1383C18.7977 43.1309 19.5797 43.9129 20.568 44.1793C21.466 44.4199 23.7434 44.609 26.8328 44.7293C28.4012 44.7895 30.0813 44.8281 31.7613 44.8496L33.3855 44.8625H34.6145C35.1043 44.8625 35.65 44.8582 36.2387 44.8496C37.9187 44.8281 39.6031 44.7895 41.1672 44.7293C44.2566 44.6133 46.5297 44.4199 47.432 44.1793C48.4203 43.9172 49.2023 43.1309 49.4688 42.1383C49.6707 41.3777 49.834 40.2434 49.95 38.8598C50.0402 37.7984 50.1004 36.6555 50.1305 35.5125C50.1391 35.1129 50.1477 34.7434 50.1519 34.4082ZM40.1445 33.957L30.1758 39.7578V28.2422L40.1445 33.957Z" fill="#920606"/>
</svg>
